<?xml version="1.0" encoding="utf-8"?>
<!-- Generator: Adobe Illustrator 16.0.0, SVG Export Plug-In . SVG Version: 6.00 Build 0)  -->
<!DOCTYPE svg PUBLIC "-//W3C//DTD SVG 1.1//EN" "http://www.w3.org/Graphics/SVG/1.1/DTD/svg11.dtd">
<svg version="1.1" id="Layer_1" xmlns="http://www.w3.org/2000/svg" xmlns:xlink="http://www.w3.org/1999/xlink" x="0px" y="0px"
	 width="24px" height="24px" viewBox="0 0 24 24" enable-background="new 0 0 24 24" xml:space="preserve">
<path fill="#ffffff" d="M23.237,7.917c-0.449-0.182-0.962,0.034-1.143,0.483c-0.421,1.034-0.344,2.095-0.244,2.692l-8.339,10.024
	L2.956,17.93c-0.357-0.12-0.847-0.646-1.08-1.523c-0.057-0.214-0.118-0.551-0.119-0.959c0.016-0.215,0.044-0.425,0.102-0.619
	c0.339-1.123,1.108-0.894,1.396-0.807c3.163,0.945,9.213,2.607,9.597,2.713c0.068,0.02,0.138,0.031,0.208,0.035
	c0.001,0,0.001,0,0.001,0c0.025,0.002,0.053-0.002,0.08-0.004c0.014,0,0.026-0.001,0.04-0.002c0.017-0.001,0.032,0,0.048-0.002
	c0.059-0.009,0.113-0.035,0.171-0.056c0.034-0.012,0.068-0.017,0.102-0.033c0.096-0.049,0.186-0.114,0.262-0.199
	c0.001-0.001,0.001-0.002,0.002-0.003L23.783,5.019c0.064-0.073,0.109-0.157,0.146-0.243c0.011-0.026,0.018-0.052,0.026-0.078
	c0.021-0.067,0.032-0.136,0.036-0.207C23.992,4.476,24,4.459,24,4.443c0-0.006-0.004-0.012-0.004-0.018
	c-0.002-0.086-0.013-0.172-0.04-0.257c-0.006-0.019-0.019-0.035-0.025-0.053c-0.009-0.021-0.019-0.038-0.028-0.058
	c-0.051-0.103-0.116-0.196-0.2-0.27c-0.001-0.001-0.002-0.003-0.003-0.004c-0.005-0.004-0.011-0.005-0.016-0.009
	c-0.073-0.062-0.158-0.108-0.25-0.143c-0.023-0.009-0.046-0.018-0.07-0.025c-0.018-0.005-0.034-0.015-0.053-0.019L11.579,1.021
	c-0.31-0.069-0.632,0.036-0.842,0.271L1.541,11.555c-1.055,1.172-1.583,2.601-1.538,4.051c-0.018,1.541,0.668,3.127,1.971,3.787
	c0.146,0.082,0.295,0.154,0.451,0.206l11.136,3.364C13.646,22.987,13.73,23,13.815,23c0.257,0,0.506-0.112,0.675-0.316l8.982-10.798
	c0.187-0.222,0.249-0.523,0.169-0.802c-0.003-0.011-0.298-1.097,0.079-2.026C23.903,8.609,23.687,8.099,23.237,7.917z"/>
</svg>
