<?xml version="1.0" encoding="utf-8"?>
<!-- Generator: Adobe Illustrator 16.0.0, SVG Export Plug-In . SVG Version: 6.00 Build 0)  -->
<!DOCTYPE svg PUBLIC "-//W3C//DTD SVG 1.1//EN" "http://www.w3.org/Graphics/SVG/1.1/DTD/svg11.dtd">
<svg version="1.1" id="Layer_1" xmlns="http://www.w3.org/2000/svg" xmlns:xlink="http://www.w3.org/1999/xlink" x="0px" y="0px"
	 width="24px" height="24px" viewBox="0 0 24 24" enable-background="new 0 0 24 24" xml:space="preserve">
<g id="Calque_2">
</g>
<rect y="2" fill="#00D1B2" width="24" height="22"/>
<path fill="#00D1B2" d="M1.5,22.413c2.23,0,6.288,0.977,8.608,1.587h3.783c2.32-0.61,6.377-1.587,8.608-1.587
	c0.276,0,0.5-0.224,0.5-0.5V0h-4.543C15.625,0.546,12.687,1.37,12,1.566C11.313,1.37,8.375,0.546,5.542,0H1v21.913
	C1,22.189,1.224,22.413,1.5,22.413z"/>
<path fill="#FFFFFF" d="M1.5,22.913c1.653,0,4.352,0.555,6.563,1.087h7.876c2.212-0.532,4.909-1.087,6.562-1.087
	c0.553,0,1-0.447,1-1V0h-1v21.913c-2.815,0-8.336,1.48-10,1.945V1.945C14.164,1.48,19.685,0,22.5,0h-6.433
	c-1.467,0.34-2.778,0.689-3.567,0.907V0h-1v0.907C10.711,0.689,9.399,0.34,7.933,0H1.5c2.815,0,8.336,1.48,10,1.945v21.913
	c-1.664-0.465-7.185-1.945-10-1.945V0h-1v21.913C0.5,22.466,0.948,22.913,1.5,22.913z"/>
</svg>
